<svg width="95" height="116" viewBox="0 0 95 116" fill="none" xmlns="http://www.w3.org/2000/svg">
<rect y="0.5" width="95" height="115" rx="20" fill="#F3F4F6"/>
<path d="M47.5 33.7624L19.5 44.9624V82.2374H26.5V61.2374C26.5 59.3124 27.186 57.6651 28.558 56.2954C29.93 54.9258 31.5773 54.2398 33.5 54.2374H61.5C63.425 54.2374 65.0735 54.9234 66.4455 56.2954C67.8175 57.6674 68.5023 59.3148 68.5 61.2374V82.2374H75.5V44.9624L47.5 33.7624ZM12.5 82.2374V44.9624C12.5 43.5041 12.8943 42.1916 13.683 41.0249C14.4717 39.8583 15.5357 39.0124 16.875 38.4874L44.875 27.2875C45.6917 26.9375 46.5667 26.7625 47.5 26.7625C48.4333 26.7625 49.3083 26.9375 50.125 27.2875L78.125 38.4874C79.4667 39.0124 80.5318 39.8583 81.3205 41.0249C82.1092 42.1916 82.5023 43.5041 82.5 44.9624V82.2374C82.5 84.1624 81.8152 85.8109 80.4455 87.1829C79.0758 88.5549 77.4273 89.2398 75.5 89.2374H61.5V61.2374H33.5V89.2374H19.5C17.575 89.2374 15.9277 88.5526 14.558 87.1829C13.1883 85.8133 12.5023 84.1648 12.5 82.2374ZM37 89.2374V82.2374H44V89.2374H37ZM44 78.7374V71.7374H51V78.7374H44ZM51 89.2374V82.2374H58V89.2374H51Z" fill="#F32828"/>
</svg>
