<svg width="95" height="116" viewBox="0 0 95 116" fill="none" xmlns="http://www.w3.org/2000/svg">
<g clip-path="url(#clip0_2327_1011)">
<path d="M75 0.5H20C8.9543 0.5 0 9.4543 0 20.5V95.5C0 106.546 8.9543 115.5 20 115.5H75C86.0457 115.5 95 106.546 95 95.5V20.5C95 9.4543 86.0457 0.5 75 0.5Z" fill="black"/>
<path d="M47.5 33.7626L19.5 44.9626V82.2376H26.5V61.2376C26.5 59.3126 27.186 57.6653 28.558 56.2956C29.93 54.926 31.5773 54.24 33.5 54.2376H61.5C63.425 54.2376 65.0735 54.9236 66.4455 56.2956C67.8175 57.6676 68.5023 59.315 68.5 61.2376V82.2376H75.5V44.9626L47.5 33.7626ZM12.5 82.2376V44.9626C12.5 43.5043 12.8943 42.1918 13.683 41.0251C14.4717 39.8585 15.5357 39.0126 16.875 38.4876L44.875 27.2877C45.6917 26.9377 46.5667 26.7627 47.5 26.7627C48.4333 26.7627 49.3083 26.9377 50.125 27.2877L78.125 38.4876C79.4667 39.0126 80.5318 39.8585 81.3205 41.0251C82.1092 42.1918 82.5023 43.5043 82.5 44.9626V82.2376C82.5 84.1626 81.8152 85.8111 80.4455 87.1831C79.0758 88.5551 77.4273 89.24 75.5 89.2376H61.5V61.2376H33.5V89.2376H19.5C17.575 89.2376 15.9277 88.5528 14.558 87.1831C13.1883 85.8135 12.5023 84.165 12.5 82.2376ZM37 89.2376V82.2376H44V89.2376H37ZM44 78.7376V71.7376H51V78.7376H44ZM51 89.2376V82.2376H58V89.2376H51Z" fill="#F32828"/>
</g>
<defs>
<clipPath id="clip0_2327_1011">
<rect width="95" height="116" fill="white"/>
</clipPath>
</defs>
</svg>
