<svg width="95" height="116" viewBox="0 0 95 116" fill="none" xmlns="http://www.w3.org/2000/svg">
<rect y="0.5" width="95" height="115" rx="20" fill="#F3F4F6"/>
<path d="M15 61.6111H80M33.0556 90.5H61.9444M40.2778 76.0556L38.4722 90.5M54.7222 76.0556L56.5278 90.5M15 29.1111C15 28.1534 15.3805 27.2349 16.0577 26.5577C16.7349 25.8805 17.6534 25.5 18.6111 25.5H76.3889C77.3466 25.5 78.2651 25.8805 78.9423 26.5577C79.6195 27.2349 80 28.1534 80 29.1111V72.4444C80 73.4022 79.6195 74.3207 78.9423 74.9979C78.2651 75.6751 77.3466 76.0556 76.3889 76.0556H18.6111C17.6534 76.0556 16.7349 75.6751 16.0577 74.9979C15.3805 74.3207 15 73.4022 15 72.4444V29.1111Z" stroke="#F32828" stroke-width="6" stroke-linecap="round" stroke-linejoin="round"/>
</svg>
