<svg width="95" height="116" viewBox="0 0 95 116" fill="none" xmlns="http://www.w3.org/2000/svg">
<g clip-path="url(#clip0_2327_1014)">
<path d="M75 0.5H20C8.9543 0.5 0 9.4543 0 20.5V95.5C0 106.546 8.9543 115.5 20 115.5H75C86.0457 115.5 95 106.546 95 95.5V20.5C95 9.4543 86.0457 0.5 75 0.5Z" fill="black"/>
<path d="M77.2892 45C74.7527 39.2027 70.5754 34.2698 65.2695 30.806C59.9636 27.3422 53.7597 25.4982 47.4185 25.5C30.5251 25.5 16.6323 38.3278 15 54.75" stroke="#F32828" stroke-width="6" stroke-linecap="round" stroke-linejoin="round"/>
<path d="M66.9674 45H78.0451C78.3018 45 78.556 44.9496 78.7932 44.8516C79.0304 44.7536 79.2459 44.6099 79.4274 44.4289C79.609 44.2478 79.753 44.0328 79.8512 43.7962C79.9494 43.5596 80 43.3061 80 43.05V32M17.7075 71C22.7381 82.479 34.2198 90.5 47.5782 90.5C64.4749 90.5 78.3677 77.6722 80 61.25" stroke="#F32828" stroke-width="6" stroke-linecap="round" stroke-linejoin="round"/>
<path d="M28.0326 71H16.9549C16.4364 71 15.9392 71.2054 15.5726 71.5711C15.206 71.9368 15 72.4328 15 72.95V84" stroke="#F32828" stroke-width="6" stroke-linecap="round" stroke-linejoin="round"/>
<path d="M55.5638 67.75C55.9959 67.75 56.4103 67.5788 56.7158 67.274C57.0213 66.9693 57.1929 66.556 57.1929 66.125C57.1929 65.694 57.0213 65.2807 56.7158 64.976C56.4103 64.6712 55.9959 64.5 55.5638 64.5C55.1318 64.5 54.7174 64.6712 54.4119 64.976C54.1064 65.2807 53.9348 65.694 53.9348 66.125C53.9348 66.556 54.1064 66.9693 54.4119 67.274C54.7174 67.5788 55.1318 67.75 55.5638 67.75ZM39.2731 51.5C39.7052 51.5 40.1195 51.3288 40.425 51.024C40.7306 50.7193 40.9022 50.306 40.9022 49.875C40.9022 49.444 40.7306 49.0307 40.425 48.726C40.1195 48.4212 39.7052 48.25 39.2731 48.25C38.8411 48.25 38.4267 48.4212 38.1212 48.726C37.8157 49.0307 37.644 49.444 37.644 49.875C37.644 50.306 37.8157 50.7193 38.1212 51.024C38.4267 51.3288 38.8411 51.5 39.2731 51.5Z" fill="#F32828" stroke="#F32828" stroke-width="6" stroke-linecap="round" stroke-linejoin="round"/>
<path d="M57.1929 48.25L37.644 67.75" stroke="#F32828" stroke-width="6" stroke-linecap="round" stroke-linejoin="round"/>
</g>
<defs>
<clipPath id="clip0_2327_1014">
<rect width="95" height="116" fill="white"/>
</clipPath>
</defs>
</svg>
