<svg width="47" height="38" viewBox="0 0 47 38" fill="none" xmlns="http://www.w3.org/2000/svg">
<path d="M25.0236 22.3424C25.0236 26.9074 21.5402 29.5302 17.2433 28.2011C12.9465 26.8719 9.46313 22.0938 9.46313 17.5299C9.46313 12.9649 12.9465 10.341 17.2433 11.6701C21.5402 12.9993 25.0236 17.7774 25.0236 22.3424Z" stroke="white" stroke-linecap="round" stroke-linejoin="round"/>
<path d="M22.2965 21.3855C22.2965 23.2303 21.342 24.7153 19.7928 25.2791C18.2436 25.8417 16.3358 25.3994 14.7878 24.1172C13.2386 22.8339 12.2842 20.9077 12.2842 19.0618M15.0903 1L15.3596 6.63292M15.0903 1L1 4.62198M15.0903 1L45.6875 4.35385M35.0863 9.71865L34.5489 36.6767" stroke="white" stroke-linecap="round" stroke-linejoin="round"/>
<path d="M1 4.62188L3.41542 27.2876L34.5489 36.6766L45.016 27.5557L45.6875 4.35376L35.0863 9.71855L1 4.62188Z" stroke="white" stroke-linecap="round" stroke-linejoin="round"/>
<path d="M19.9716 17.4749C19.9716 17.9298 19.6244 18.1922 19.1947 18.0593C18.7662 17.9263 18.419 17.4497 18.419 16.9936C18.419 16.5376 18.7662 16.2763 19.1947 16.4093C19.6232 16.5422 19.9716 17.0188 19.9716 17.4749ZM14.8337 16.2213C14.8337 16.6774 14.4853 16.9386 14.0568 16.8057C13.6282 16.6728 13.2799 16.1961 13.2799 15.7401C13.2799 15.2852 13.6282 15.024 14.0568 15.1557C14.4853 15.2886 14.8337 15.7653 14.8337 16.2213Z" fill="white"/>
</svg>
