<svg width="35" height="36" viewBox="0 0 35 36" fill="none" xmlns="http://www.w3.org/2000/svg">
<path d="M22.9688 0.676758L35 6.74274V20.2706L32.8125 19.1677V9.20704L24.0625 13.6187V18.0647L21.875 19.1677V13.6187L13.125 9.20704V13.1189L10.9375 12.016V6.74274L22.9688 0.676758ZM22.9688 11.7058L25.9937 10.1721L18.0811 5.60536L14.4751 7.43205L22.9688 11.7058ZM28.3521 9.00024L31.4624 7.43205L22.9688 3.14106L20.4224 4.43353L28.3521 9.00024ZM19.6875 20.2706L17.5 21.3735V21.3562L10.9375 24.6649V32.5059L17.5 29.18V31.6615L9.84375 35.5217L0 30.5414V18.8919L9.84375 13.9289L19.6875 18.8919V20.2706ZM8.75 32.5059V24.6649L2.1875 21.3562V29.18L8.75 32.5059ZM9.84375 22.7521L16.1499 19.5812L9.84375 16.3932L3.5376 19.5812L9.84375 22.7521ZM19.6875 22.7349L27.3438 18.8747L35 22.7349V31.8166L27.3438 35.6768L19.6875 31.8166V22.7349ZM26.25 32.661V27.405L21.875 25.1992V30.4552L26.25 32.661ZM32.8125 30.4552V25.1992L28.4375 27.405V32.661L32.8125 30.4552ZM27.3438 25.4921L31.4624 23.4069L27.3438 21.339L23.2251 23.4069L27.3438 25.4921Z" fill="white"/>
</svg>
