<svg width="35" height="35" viewBox="0 0 35 35" fill="none" xmlns="http://www.w3.org/2000/svg">
<path d="M10.9375 19.6875H19.6875V21.875H10.9375V19.6875ZM10.9375 14.2188H24.0625V16.4062H10.9375V14.2188ZM10.9375 25.1562H16.4062V27.3438H10.9375V25.1562Z" fill="white"/>
<path d="M27.3438 5.46875H24.0625V4.375C24.0625 3.79484 23.832 3.23844 23.4218 2.8282C23.0116 2.41797 22.4552 2.1875 21.875 2.1875H13.125C12.5448 2.1875 11.9884 2.41797 11.5782 2.8282C11.168 3.23844 10.9375 3.79484 10.9375 4.375V5.46875H7.65625C7.07609 5.46875 6.51969 5.69922 6.10945 6.10945C5.69922 6.51969 5.46875 7.07609 5.46875 7.65625V30.625C5.46875 31.2052 5.69922 31.7616 6.10945 32.1718C6.51969 32.582 7.07609 32.8125 7.65625 32.8125H27.3438C27.9239 32.8125 28.4803 32.582 28.8905 32.1718C29.3008 31.7616 29.5312 31.2052 29.5312 30.625V7.65625C29.5312 7.07609 29.3008 6.51969 28.8905 6.10945C28.4803 5.69922 27.9239 5.46875 27.3438 5.46875ZM13.125 4.375H21.875V8.75H13.125V4.375ZM27.3438 30.625H7.65625V7.65625H10.9375V10.9375H24.0625V7.65625H27.3438V30.625Z" fill="white"/>
</svg>
