<svg width="46" height="48" viewBox="0 0 46 48" fill="none" xmlns="http://www.w3.org/2000/svg">
<path d="M31.8 8.35H14.2C14.0821 8.35 13.9999 8.30715 13.9464 8.25362C13.8928 8.20008 13.85 8.11783 13.85 8V4.8C13.85 2.89036 15.4903 1.25 17.4 1.25H28.6C30.5096 1.25 32.15 2.89036 32.15 4.8V8C32.15 8.11783 32.1071 8.20008 32.0536 8.25362C32.0001 8.30715 31.9178 8.35 31.8 8.35Z" stroke="white" stroke-width="2.5"/>
<path d="M35.3839 42.9839L35.4467 42.9211L35.5 42.85C36.1022 42.0471 36.0678 41.2174 35.9127 40.5968L35.8287 40.2609L35.5839 40.0161L29.7958 34.2281C30.8904 32.316 31.4248 29.9592 31.0359 27.5128C30.3511 22.7531 26.4973 19.0124 21.6222 18.556C15.0376 17.8788 9.47809 23.4388 10.1561 30.0235C10.6121 34.7871 14.3424 38.7495 19.1128 39.4359C21.5864 39.8292 23.875 39.2766 25.8169 38.1847L31.6161 43.9839C31.967 44.3347 32.4488 44.575 33 44.575C33.5511 44.575 34.033 44.3347 34.3839 43.9839L35.3839 42.9839ZM39.45 5.25H40.6C42.5096 5.25 44.15 6.89036 44.15 8.8V43.2C44.15 45.1096 42.5096 46.75 40.6 46.75H5.39998C3.49033 46.75 1.84998 45.1096 1.84998 43.2V8.8C1.84998 6.89036 3.49033 5.25 5.39998 5.25H6.54998V8C6.54998 12.1904 10.0096 15.65 14.2 15.65H31.8C35.9903 15.65 39.45 12.1904 39.45 8V5.25Z" stroke="white" stroke-width="2.5"/>
<path d="M15.45 29.1C15.45 26.3775 17.7032 24.05 20.5 24.05C23.3096 24.05 25.55 26.2904 25.55 29.1C25.55 31.9097 23.3096 34.1501 20.5 34.1501C17.6903 34.1501 15.45 31.9097 15.45 29.1Z" stroke="white" stroke-width="2.5"/>
</svg>
