<svg width="35" height="35" viewBox="0 0 35 35" fill="none" xmlns="http://www.w3.org/2000/svg">
<path d="M14.5834 5.83333C13.0363 5.83333 11.5525 6.44791 10.4586 7.54187C9.3646 8.63583 8.75002 10.1196 8.75002 11.6667C8.75002 13.2138 9.3646 14.6975 10.4586 15.7915C11.5525 16.8854 13.0363 17.5 14.5834 17.5C16.1304 17.5 17.6142 16.8854 18.7081 15.7915C19.8021 14.6975 20.4167 13.2138 20.4167 11.6667C20.4167 10.1196 19.8021 8.63583 18.7081 7.54187C17.6142 6.44791 16.1304 5.83333 14.5834 5.83333ZM14.5834 8.74999C15.3569 8.74999 16.0988 9.05729 16.6457 9.60427C17.1927 10.1512 17.5 10.8931 17.5 11.6667C17.5 12.4402 17.1927 13.1821 16.6457 13.7291C16.0988 14.276 15.3569 14.5833 14.5834 14.5833C13.8098 14.5833 13.0679 14.276 12.521 13.7291C11.974 13.1821 11.6667 12.4402 11.6667 11.6667C11.6667 10.8931 11.974 10.1512 12.521 9.60427C13.0679 9.05729 13.8098 8.74999 14.5834 8.74999ZM24.7917 17.5C24.5584 17.5 24.4417 17.6167 24.4417 17.85L24.0625 19.6875C23.7417 19.95 23.275 20.1833 22.925 20.4167L21.0584 19.6875C20.9417 19.6875 20.7084 19.6875 20.5917 19.8333L19.1917 22.4C19.075 22.5167 19.075 22.75 19.3084 22.8667L20.825 24.0625V25.5208L19.3084 26.7167C19.1917 26.8333 19.075 27.0667 19.1917 27.1833L20.5917 29.75C20.7084 29.8958 20.9417 29.8958 21.0584 29.8958L22.925 29.1667C23.275 29.4 23.7417 29.6333 24.0625 29.8958L24.4417 31.7333C24.4417 31.9667 24.5584 32.0833 24.7917 32.0833H27.7084C27.825 32.0833 28.0584 31.9667 28.0584 31.7333L28.2917 29.8958C28.7584 29.6333 29.225 29.4 29.575 29.1667L31.3542 29.8958C31.5584 29.8958 31.7917 29.8958 31.7917 29.75L33.3084 27.1833C33.425 27.0667 33.3084 26.8333 33.1917 26.7167L31.675 25.5208V24.0625L33.1917 22.8667C33.3084 22.75 33.425 22.5167 33.3084 22.4L31.7917 19.8333C31.7917 19.6875 31.5584 19.6875 31.3542 19.6875L29.575 20.4167C29.225 20.1833 28.7584 19.95 28.2917 19.6875L28.0584 17.85C28.0584 17.6167 27.825 17.5 27.7084 17.5H24.7917ZM14.5834 18.9583C10.6896 18.9583 2.91669 20.8979 2.91669 24.7917V29.1667H17.0188C16.6104 28.3062 16.3188 27.3729 16.1729 26.3958H5.68752V24.7917C5.68752 23.8583 10.2521 21.7292 14.5834 21.7292C15.2104 21.7292 15.8521 21.7875 16.4792 21.875C16.7709 20.9417 17.1646 20.0667 17.675 19.2646C16.5375 19.075 15.4584 18.9583 14.5834 18.9583ZM26.3084 22.6042C27.475 22.6042 28.4375 23.5667 28.4375 24.85C28.4375 26.0167 27.475 26.9792 26.3084 26.9792C25.025 26.9792 24.0625 26.0167 24.0625 24.85C24.0625 23.5667 25.025 22.6042 26.3084 22.6042Z" fill="white"/>
</svg>
