<svg width="35" height="35" viewBox="0 0 35 35" fill="none" xmlns="http://www.w3.org/2000/svg">
<path d="M30.625 26.25V30.625H4.375V26.25H2.1875V30.625L2.19625 30.6195C2.1948 31.1991 2.42342 31.7556 2.83192 32.1668C3.24043 32.5779 3.79541 32.8102 4.375 32.8125H30.625C31.2052 32.8125 31.7616 32.582 32.1718 32.1718C32.582 31.7616 32.8125 31.2052 32.8125 30.625V26.25H30.625ZM30.1875 15.9688L26.25 19.9063V4.375H24.0625V19.9063L20.125 15.9688L18.5938 17.5L25.1562 24.0625L31.7188 17.5L30.1875 15.9688ZM9.84375 4.375L3.28125 10.9375L4.8125 12.4688L8.75 8.53125V24.0625H10.9375V8.53125L14.875 12.4688L16.4062 10.9375L9.84375 4.375Z" fill="white"/>
</svg>
