<svg width="81" height="81" viewBox="0 0 81 81" fill="none" xmlns="http://www.w3.org/2000/svg">
<path d="M36.7763 74.25H31.5188C18.075 74.25 11.355 74.25 7.1775 69.9938C3 65.7375 3 58.8863 3 45.1875C3 31.4888 3 24.6375 7.1775 20.3813C11.355 16.125 18.075 16.125 31.5188 16.125H45.78C59.2238 16.125 65.9475 16.125 70.125 20.3813C73.3388 23.655 74.0775 28.4663 74.25 36.75" stroke="white" stroke-width="5" stroke-linecap="round" stroke-linejoin="round"/>
<path d="M70.5638 70.5863L78 78M55.5 16.125L55.125 14.9625C53.2688 9.1875 52.3425 6.3 50.1338 4.65C47.9213 3 44.9888 3 39.1125 3H38.1262C32.2575 3 29.3213 3 27.1125 4.65C24.9 6.3 23.9738 9.1875 22.1175 14.9625L21.75 16.125M74.4488 61.2225C74.4783 59.4671 74.1581 57.7234 73.5068 56.0931C72.8555 54.4627 71.8861 52.9783 70.6552 51.7265C69.4242 50.4747 67.9564 49.4804 66.3372 48.8018C64.7181 48.1231 62.98 47.7736 61.2244 47.7736C59.4687 47.7736 57.7307 48.1231 56.1115 48.8018C54.4924 49.4804 53.0245 50.4747 51.7936 51.7265C50.5627 52.9783 49.5933 54.4627 48.942 56.0931C48.2907 57.7234 47.9704 59.4671 48 61.2225C48.0584 64.6913 49.4774 67.9982 51.9511 70.4306C54.4248 72.863 57.7551 74.2261 61.2244 74.2261C64.6936 74.2261 68.024 72.863 70.4977 70.4306C72.9714 67.9982 74.3903 64.6913 74.4488 61.2225Z" stroke="white" stroke-width="5" stroke-linecap="round" stroke-linejoin="round"/>
</svg>
