<svg width="65" height="92" viewBox="0 0 65 92" fill="none" xmlns="http://www.w3.org/2000/svg">
<path d="M58.3647 45.9685C55.0213 43.1659 50.7708 41.6783 46.4093 41.7841H18.3739C17.0957 41.8164 15.824 41.5904 14.6352 41.1197C13.4463 40.649 12.3646 39.9433 11.4549 39.0447C10.5452 38.1462 9.82613 37.0733 9.34078 35.8903C8.85543 34.7073 8.61377 33.4386 8.63026 32.16C8.59909 31.6624 8.59909 31.1633 8.63026 30.6656C9.00718 28.381 10.2052 26.3125 11.9992 24.8486C13.7933 23.3847 16.0601 22.6261 18.3739 22.7153H45.9909C48.2437 22.7133 50.4239 23.5115 52.1428 24.9677C53.8617 26.4238 55.0075 28.4432 55.3759 30.6656H64.3425C63.9671 26.0564 61.8709 21.7573 58.4708 18.6229C55.0706 15.4885 50.6154 13.7485 45.9909 13.7487H36.5461V0H29.074V13.7487H18.3739C13.7495 13.7485 9.29426 15.4885 5.89406 18.6229C2.49387 21.7573 0.397727 26.0564 0.0223649 30.6656C-0.00745497 31.1633 -0.00745497 31.6623 0.0223649 32.16C0.0223649 34.57 0.497041 36.9564 1.41929 39.1829C2.34154 41.4094 3.69331 43.4324 5.39741 45.1365C8.83899 48.5781 13.5068 50.5116 18.3739 50.5116H46.7082C47.9764 50.4797 49.238 50.7019 50.4189 51.1653C51.5998 51.6286 52.676 52.3237 53.5841 53.2094C54.4921 54.0952 55.2137 55.1538 55.7062 56.3228C56.1987 57.4918 56.4523 58.7476 56.4519 60.0161C56.5139 60.6922 56.5139 61.3725 56.4519 62.0486C55.9773 64.1518 54.8016 66.0312 53.1179 67.3782C51.4342 68.7251 49.3426 69.4596 47.1864 69.4609H19.0912C16.9351 69.4596 14.8435 68.7251 13.1598 67.3782C11.4761 66.0312 10.3004 64.1518 9.8258 62.0486H0.799467C1.31318 66.5399 3.46135 70.6853 6.83465 73.6948C10.208 76.7044 14.5706 78.3676 19.0912 78.3677H29.074V91.9371H36.5461V78.3677H46.7082C51.2289 78.3676 55.5915 76.7044 58.9648 73.6948C62.3381 70.6853 64.4863 66.5399 65 62.0486V60.0161C64.9928 57.3312 64.3946 54.6807 63.2478 52.2529C62.1011 49.8251 60.434 47.6796 58.3647 45.9685Z" fill="black"/>
</svg>
