<svg width="81" height="89" viewBox="0 0 81 89" fill="none" xmlns="http://www.w3.org/2000/svg">
<path d="M40.5 86.3333C37.0917 86.3333 33.8333 84.9583 27.3208 82.2167C11.1083 75.3875 3 71.975 3 66.2292V26.0917M40.5 86.3333C43.9083 86.3333 47.1667 84.9583 53.6792 82.2167C69.8917 75.3875 78 71.975 78 66.2292V26.0917M40.5 86.3333V44.7917M3 26.0917C3 28.6458 6.34167 30.2583 13.0208 33.4792L25.1875 39.3542C32.7042 42.9792 36.4583 44.7917 40.5 44.7917M3 26.0917C3 23.5417 6.34167 21.9292 13.0208 18.7083L19.6667 15.5M78 26.0917C78 28.6458 74.6583 30.2583 67.9792 33.4792L55.8125 39.3542C48.2958 42.9792 44.5417 44.7917 40.5 44.7917M78 26.0917C78 23.5417 74.6583 21.9292 67.9792 18.7083L61.3333 15.5M15.5 48.9417L23.8333 53.0958M32.1667 3L40.5 11.3333M40.5 11.3333L48.8333 19.6667M40.5 11.3333L32.1667 19.6667M40.5 11.3333L48.8333 3" stroke="black" stroke-width="5" stroke-linecap="round" stroke-linejoin="round"/>
</svg>
