<svg width="65" height="92" viewBox="0 0 65 92" fill="none" xmlns="http://www.w3.org/2000/svg">
<path d="M34.2233 19.7253C41.441 19.7253 44.1173 24.0244 44.3606 30.3467H53.3219C53.038 21.6473 48.7804 13.656 40.3057 11.0765V0H28.141V10.9248C26.5596 11.3294 25.0998 11.9869 23.6806 12.7456L29.8035 20.3828C31.1011 19.9782 32.6014 19.7253 34.2233 19.7253ZM5.7174 4.65316L0 11.7846L13.9488 29.1834C13.9488 39.7036 20.2745 45.4694 29.8035 48.9593L44.0362 66.7121C42.6575 69.1904 39.7785 71.3147 34.2233 71.3147C25.8702 71.3147 22.5858 66.6615 22.1397 60.6933H13.219C13.7056 71.7699 20.3556 77.9909 28.141 80.0646V91.04H40.3057V80.1658C44.1984 79.2554 47.7261 77.384 50.2807 74.5011L59.2826 85.7293L65 78.5979L5.7174 4.65316Z" fill="black"/>
</svg>
