<svg width="65" height="92" viewBox="0 0 65 92" fill="none" xmlns="http://www.w3.org/2000/svg">
<path d="M11.05 67.3001C12.0843 66.9587 13.1962 67.0963 14.1409 67.6825C15.0856 68.2687 15.7858 69.2556 16.0875 70.426C16.3892 71.5965 16.2676 72.8546 15.7496 73.9236C15.2315 74.9926 14.3593 75.7849 13.325 76.1263C11.2938 76.7975 9.83125 77.5054 8.89281 78.149C9.85969 78.8064 11.3872 79.5419 13.5078 80.2268C18.2 81.7439 24.9153 82.746 32.5 82.746C40.0847 82.746 46.8 81.7439 51.4922 80.2268C53.6169 79.5419 55.1403 78.8064 56.1072 78.149C55.1728 77.5054 53.7103 76.7975 51.6791 76.1263C50.661 75.7699 49.8075 74.9751 49.3024 73.9132C48.7974 72.8514 48.6813 71.6075 48.9792 70.4497C49.2771 69.2918 49.9651 68.3128 50.895 67.7237C51.8248 67.1345 52.922 66.9824 53.95 67.3001C56.6638 68.1965 59.15 69.3457 61.0594 70.8214C62.8266 72.1959 65 74.5909 65 78.149C65 81.7485 62.7738 84.1619 60.9781 85.5364C59.0363 87.0166 56.4972 88.1705 53.7225 89.0669C48.1244 90.8827 40.625 91.94 32.5 91.94C24.375 91.94 16.8756 90.8827 11.2775 89.0669C8.50281 88.1705 5.96375 87.0166 4.02187 85.5364C2.22625 84.1573 0 81.7485 0 78.149C0 74.5909 2.17344 72.1959 3.94062 70.8214C5.85 69.3457 8.33625 68.1965 11.05 67.3001ZM32.5 0C40.5808 0 48.3307 3.63244 54.0447 10.0982C59.7587 16.564 62.9688 25.3335 62.9688 34.4775C62.9688 46.2826 57.2812 55.8811 51.3906 62.7031C49.049 65.3874 46.5327 67.8691 43.8628 70.1272C41.4497 72.1775 35.9328 76.0206 35.9328 76.0206C34.8865 76.6936 33.7036 77.0474 32.5 77.0474C31.2964 77.0474 30.1135 76.6936 29.0672 76.0206C26.3293 74.2241 23.6819 72.2566 21.1372 70.1272C18.4634 67.8746 15.9467 65.3926 13.6094 62.7031C7.71875 55.8811 2.03125 46.2826 2.03125 34.4775C2.03125 25.3335 5.24134 16.564 10.9553 10.0982C16.6693 3.63244 24.4192 0 32.5 0ZM32.5 9.194C26.5741 9.194 20.8908 11.8578 16.7006 16.5994C12.5103 21.3409 10.1562 27.7719 10.1562 34.4775C10.1562 42.8257 14.2025 50.236 19.4187 56.2673C23.3431 60.8091 27.6656 64.2661 30.6597 66.3899L32.5 67.6495L34.3403 66.3899C37.3303 64.2661 41.6569 60.8091 45.5812 56.2719C50.7975 50.236 54.8438 42.8302 54.8438 34.4775C54.8438 27.7719 52.4897 21.3409 48.2994 16.5994C44.1092 11.8578 38.4259 9.194 32.5 9.194ZM32.5 20.6865C34.1005 20.6865 35.6853 21.0432 37.164 21.7363C38.6426 22.4293 39.9862 23.4452 41.1179 24.7258C42.2496 26.0064 43.1473 27.5267 43.7598 29.1999C44.3723 30.8731 44.6875 32.6664 44.6875 34.4775C44.6875 36.2886 44.3723 38.0819 43.7598 39.7551C43.1473 41.4283 42.2496 42.9486 41.1179 44.2292C39.9862 45.5098 38.6426 46.5257 37.164 47.2187C35.6853 47.9118 34.1005 48.2685 32.5 48.2685C29.2677 48.2685 26.1677 46.8155 23.8821 44.2292C21.5965 41.6429 20.3125 38.1351 20.3125 34.4775C20.3125 30.8199 21.5965 27.3121 23.8821 24.7258C26.1677 22.1395 29.2677 20.6865 32.5 20.6865ZM32.5 29.8805C31.4226 29.8805 30.3892 30.3648 29.6274 31.2269C28.8655 32.089 28.4375 33.2583 28.4375 34.4775C28.4375 35.6967 28.8655 36.866 29.6274 37.7281C30.3892 38.5902 31.4226 39.0745 32.5 39.0745C33.5774 39.0745 34.6108 38.5902 35.3726 37.7281C36.1345 36.866 36.5625 35.6967 36.5625 34.4775C36.5625 33.2583 36.1345 32.089 35.3726 31.2269C34.6108 30.3648 33.5774 29.8805 32.5 29.8805Z" fill="black"/>
</svg>
