<svg width="75" height="75" viewBox="0 0 75 75" fill="none" xmlns="http://www.w3.org/2000/svg">
<path fill-rule="evenodd" clip-rule="evenodd" d="M38.3719 4.85743C37.8123 4.63315 37.1877 4.63315 36.6281 4.85743L8.65312 16.0465L19.9219 20.5512L48.7688 9.01524L38.3719 4.85743ZM55.0781 11.5418L26.2313 23.0777L37.5 27.5824L66.3469 16.0465L55.0781 11.5418ZM70.3125 19.5106L39.8438 31.6981V68.8324L70.3125 56.6449V19.5106ZM35.1562 68.8371V31.6934L4.6875 19.5106V56.6496L35.1562 68.8371ZM34.8891 0.502737C36.5652 -0.167579 38.4348 -0.167579 40.1109 0.502737L73.5281 13.8715C73.9626 14.0456 74.335 14.3458 74.5973 14.7335C74.8596 15.1211 74.9999 15.5784 75 16.0465V56.6496C74.9994 57.5863 74.7182 58.5013 74.1927 59.2766C73.6672 60.052 72.9214 60.6521 72.0516 60.9996L38.3719 74.4715C37.8123 74.6958 37.1877 74.6958 36.6281 74.4715L2.95312 60.9996C2.08243 60.6529 1.33567 60.053 0.80926 59.2776C0.282852 58.5022 0.000967168 57.5868 0 56.6496L0 16.0465C0.000108937 15.5784 0.140361 15.1211 0.402689 14.7335C0.665017 14.3458 1.0374 14.0456 1.47188 13.8715L34.8891 0.502737Z" fill="black"/>
</svg>
