<svg width="75" height="65" viewBox="0 0 75 65" fill="none" xmlns="http://www.w3.org/2000/svg">
<path fill-rule="evenodd" clip-rule="evenodd" d="M45 10.8333C45 16.8188 41.6437 21.6667 37.5 21.6667C33.3563 21.6667 30 16.8188 30 10.8333C30 4.84792 33.3563 0 37.5 0C41.6437 0 45 4.84792 45 10.8333ZM41.25 10.8333C41.25 12.2699 40.8549 13.6477 40.1516 14.6635C39.4484 15.6793 38.4946 16.25 37.5 16.25C36.5054 16.25 35.5516 15.6793 34.8484 14.6635C34.1451 13.6477 33.75 12.2699 33.75 10.8333C33.75 9.39674 34.1451 8.01899 34.8484 7.00317C35.5516 5.98735 36.5054 5.41667 37.5 5.41667C38.4946 5.41667 39.4484 5.98735 40.1516 7.00317C40.8549 8.01899 41.25 9.39674 41.25 10.8333ZM26.25 14.8958C26.25 18.1282 25.3611 21.2281 23.7787 23.5137C22.1964 25.7993 20.0503 27.0833 17.8125 27.0833C15.5747 27.0833 13.4286 25.7993 11.8463 23.5137C10.2639 21.2281 9.375 18.1282 9.375 14.8958C9.375 8.16292 13.1512 2.70833 17.8125 2.70833C22.4738 2.70833 26.25 8.16292 26.25 14.8958ZM22.5 14.8958C22.5 18.6388 20.4037 21.6667 17.8125 21.6667C16.5693 21.6667 15.377 20.9533 14.4979 19.6835C13.6189 18.4138 13.125 16.6916 13.125 14.8958C13.125 11.1529 15.2213 8.125 17.8125 8.125C20.4037 8.125 22.5 11.1529 22.5 14.8958ZM0 47.274C0 37.4481 12.4931 32.5 18.75 32.5C20.2519 32.5 22.1138 32.7844 24.075 33.3558C26.4994 30.6312 31.2619 27.0833 37.5 27.0833C43.7381 27.0833 48.5006 30.6312 50.925 33.3558C52.8862 32.7871 54.7481 32.5 56.25 32.5C62.5069 32.5 75 37.4481 75 47.2713V65H0V47.274ZM3.75 47.274C3.75 46.6321 3.92625 45.779 4.71 44.636C5.52938 43.4444 6.825 42.2419 8.52938 41.1667C11.9625 39 16.1344 37.9167 18.75 37.9167C21.3656 37.9167 25.5413 39 28.9688 41.1667C30.675 42.2419 31.9706 43.4471 32.79 44.636C33.5738 45.779 33.75 46.6321 33.75 47.2713V59.5833H3.75V47.274ZM46.0312 35.3302C43.3749 33.4561 40.4562 32.4878 37.5 32.5C33.9844 32.5 31.065 33.8406 28.9688 35.3302C33.5438 37.7596 37.5 41.7435 37.5 47.274C37.5 41.7435 41.4562 37.7596 46.0312 35.3302ZM42.21 44.636C41.4262 45.779 41.25 46.6321 41.25 47.2713V59.5833H71.25V47.2713C71.25 46.6321 71.0737 45.779 70.29 44.636C69.4706 43.4444 68.175 42.2419 66.4706 41.1667C63.0375 39 58.8656 37.9167 56.25 37.9167C53.6344 37.9167 49.4587 39 46.0312 41.1667C44.325 42.2419 43.0294 43.4471 42.21 44.636ZM57.1875 27.0833C61.8488 27.0833 65.625 21.6287 65.625 14.8958C65.625 8.16292 61.8488 2.70833 57.1875 2.70833C54.9497 2.70833 52.8036 3.99237 51.2213 6.27797C49.639 8.56357 48.75 11.6635 48.75 14.8958C48.75 18.1282 49.639 21.2281 51.2213 23.5137C52.8036 25.7993 54.9497 27.0833 57.1875 27.0833ZM57.1875 21.6667C59.7788 21.6667 61.875 18.6388 61.875 14.8958C61.875 11.1529 59.7788 8.125 57.1875 8.125C55.9443 8.125 54.752 8.83835 53.8729 10.1081C52.9939 11.3779 52.5 13.1001 52.5 14.8958C52.5 18.6388 54.5962 21.6667 57.1875 21.6667Z" fill="black"/>
</svg>
