<svg width="24" height="24" viewBox="0 0 24 24" fill="none" xmlns="http://www.w3.org/2000/svg">
<path d="M6 2.4C6 1.76348 6.25286 1.15303 6.70294 0.702944C7.15303 0.252856 7.76348 0 8.4 0H15.6C16.2365 0 16.847 0.252856 17.2971 0.702944C17.7471 1.15303 18 1.76348 18 2.4V4.8H22.8C23.1183 4.8 23.4235 4.92643 23.6485 5.15147C23.8736 5.37652 24 5.68174 24 6C24 6.31826 23.8736 6.62348 23.6485 6.84853C23.4235 7.07357 23.1183 7.2 22.8 7.2H21.5172L20.4768 21.7704C20.4337 22.3759 20.1628 22.9426 19.7185 23.3563C19.2743 23.77 18.6898 24 18.0828 24H5.916C5.30897 24 4.72448 23.77 4.28026 23.3563C3.83604 22.9426 3.5651 22.3759 3.522 21.7704L2.484 7.2H1.2C0.88174 7.2 0.576515 7.07357 0.351472 6.84853C0.126428 6.62348 0 6.31826 0 6C0 5.68174 0.126428 5.37652 0.351472 5.15147C0.576515 4.92643 0.88174 4.8 1.2 4.8H6V2.4ZM8.4 4.8H15.6V2.4H8.4V4.8ZM4.8888 7.2L5.9172 21.6H18.084L19.1124 7.2H4.8888ZM9.6 9.6C9.91826 9.6 10.2235 9.72643 10.4485 9.95147C10.6736 10.1765 10.8 10.4817 10.8 10.8V18C10.8 18.3183 10.6736 18.6235 10.4485 18.8485C10.2235 19.0736 9.91826 19.2 9.6 19.2C9.28174 19.2 8.97652 19.0736 8.75147 18.8485C8.52643 18.6235 8.4 18.3183 8.4 18V10.8C8.4 10.4817 8.52643 10.1765 8.75147 9.95147C8.97652 9.72643 9.28174 9.6 9.6 9.6ZM14.4 9.6C14.7183 9.6 15.0235 9.72643 15.2485 9.95147C15.4736 10.1765 15.6 10.4817 15.6 10.8V18C15.6 18.3183 15.4736 18.6235 15.2485 18.8485C15.0235 19.0736 14.7183 19.2 14.4 19.2C14.0817 19.2 13.7765 19.0736 13.5515 18.8485C13.3264 18.6235 13.2 18.3183 13.2 18V10.8C13.2 10.4817 13.3264 10.1765 13.5515 9.95147C13.7765 9.72643 14.0817 9.6 14.4 9.6Z" fill="#0D0D0D"/>
</svg>
