<svg width="24" height="24" viewBox="0 0 24 24" fill="none" xmlns="http://www.w3.org/2000/svg">
<g clip-path="url(#clip0_2003_1369)">
<path d="M1.26728 23.9999C1.36959 23.9999 1.47191 23.9873 1.57296 23.962L6.62559 22.6989C6.84791 22.6433 7.05128 22.5284 7.21296 22.3667L22.741 6.83866C23.2184 6.36119 23.4812 5.72709 23.4812 5.05256C23.4812 4.37803 23.2184 3.74393 22.741 3.26645L20.7376 1.26309C19.7826 0.308138 18.1203 0.308138 17.1654 1.26309L1.63738 16.7911C1.4757 16.9528 1.36075 17.1561 1.30517 17.3772L0.0420136 22.4298C-0.066618 22.8606 0.060961 23.3153 0.374224 23.6298C0.612961 23.8698 0.936329 23.9999 1.26728 23.9999ZM18.9515 3.04919L20.9549 5.05256L18.9515 7.05593L16.9481 5.05256L18.9515 3.04919ZM3.67107 18.3296L15.162 6.83866L17.1654 8.84203L5.67317 20.333L3.00286 20.9999L3.67107 18.3296Z" fill="black"/>
</g>
<defs>
<clipPath id="clip0_2003_1369">
<rect width="24" height="24" fill="white"/>
</clipPath>
</defs>
</svg>
