<svg width="30" height="30" viewBox="0 0 30 30" fill="none" xmlns="http://www.w3.org/2000/svg">
<path d="M5.49875 3.51878C6.72471 3.06491 8.11522 3.35606 9.05633 4.29693C10.373 5.61356 10.373 7.74886 9.05627 9.06555C7.73929 10.3825 5.60428 10.3825 4.28729 9.06555C3.34247 8.12073 3.05316 6.72254 3.51482 5.49327C3.63134 5.18304 3.47431 4.83714 3.16408 4.72062C2.85386 4.60411 2.50795 4.76114 2.39143 5.07136C1.76574 6.73745 2.158 8.63331 3.43877 9.91408C5.22438 11.6997 8.11918 11.6997 9.90479 9.91408C11.6901 8.12876 11.6901 5.23367 9.90479 3.44835C8.62918 2.17305 6.74372 1.77828 5.08212 2.39343C4.77137 2.50847 4.61269 2.85365 4.72774 3.1644C4.84279 3.47515 5.188 3.63383 5.49875 3.51878Z" fill="black"/>
<path d="M4.72893 3.45937L6.27812 5.00826C6.405 5.13523 6.405 5.34169 6.27809 5.4686L5.46 6.28669C5.33282 6.41387 5.12681 6.41387 4.99963 6.28669L3.45879 4.74614C3.22444 4.51186 2.84455 4.51188 2.61026 4.74623C2.37598 4.98058 2.37601 5.36047 2.61035 5.59476L4.15116 7.13524C4.74694 7.73103 5.71274 7.73102 6.30855 7.13521L7.12664 6.31713C7.72213 5.72164 7.72213 4.75569 7.12682 4.15988L5.57739 2.61075C5.34305 2.37646 4.96315 2.37649 4.72887 2.61084C4.49458 2.84519 4.49458 3.22508 4.72893 3.45937ZM24.5047 26.5029C23.2787 26.9568 21.8882 26.6656 20.9471 25.7248C19.6305 24.4081 19.6305 22.2728 20.9471 20.9561C22.2641 19.6391 24.3991 19.6391 25.7161 20.9561C26.6609 21.901 26.9503 23.2991 26.4886 24.5284C26.3721 24.8386 26.5291 25.1845 26.8393 25.3011C27.1496 25.4176 27.4955 25.2605 27.612 24.9503C28.2377 23.2842 27.8454 21.3884 26.5646 20.1076C24.779 18.322 21.8842 18.322 20.0986 20.1076C18.3133 21.8929 18.3133 24.788 20.0986 26.5733C21.3742 27.8486 23.2597 28.2434 24.9213 27.6283C25.2321 27.5132 25.3907 27.168 25.2757 26.8573C25.1606 26.5465 24.8155 26.3879 24.5047 26.5029H24.5047Z" fill="black"/>
<path d="M25.2748 26.5622L23.7259 25.0133C23.5988 24.8862 23.5988 24.68 23.7258 24.5532L24.5438 23.7348C24.6709 23.6077 24.8769 23.6077 25.0041 23.7349L26.5449 25.2754C26.7793 25.5097 27.1592 25.5097 27.3935 25.2753C27.6278 25.041 27.6277 24.6611 27.3934 24.4268L25.8526 22.8863C25.2568 22.2906 24.291 22.2906 23.6952 22.8864L22.8773 23.7045C22.2815 24.2998 22.2815 25.266 22.8774 25.8619L24.4263 27.4108C24.6606 27.6451 25.0405 27.6451 25.2748 27.4108C25.5091 27.1765 25.5091 26.7966 25.2748 26.5623L25.2748 26.5622ZM19.7599 21.6265L8.29721 10.1638C8.0629 9.9295 7.683 9.9295 7.44869 10.1638C7.21437 10.3981 7.21437 10.778 7.44869 11.0123L18.9114 22.475C19.1457 22.7094 19.5256 22.7094 19.7599 22.475C19.9942 22.2407 19.9942 21.8608 19.7599 21.6265ZM10.0714 8.18135L21.8011 19.9111C22.0354 20.1454 22.4153 20.1454 22.6496 19.9111C22.8839 19.6767 22.8839 19.2969 22.6496 19.0625L10.9199 7.33283C10.6856 7.09851 10.3057 7.09851 10.0714 7.33283C9.83709 7.56714 9.83709 7.94704 10.0714 8.18135ZM17.569 11.4778L22.7467 6.30014C22.981 6.06583 22.981 5.68593 22.7467 5.45162C22.5123 5.2173 22.1325 5.2173 21.8981 5.45162L16.7204 10.6293C16.4861 10.8636 16.4861 11.2435 16.7204 11.4778C16.9548 11.7122 17.3347 11.7122 17.569 11.4778ZM23.85 7.08583L18.5019 12.382C18.2665 12.6152 18.2646 12.9951 18.4978 13.2306C18.731 13.466 19.1109 13.4679 19.3463 13.2347L24.6944 7.93848C24.9299 7.70531 24.9317 7.32542 24.6985 7.08996C24.4654 6.8545 24.0855 6.85265 23.85 7.08583Z" fill="black"/>
<path d="M27.7067 3.83798C27.7863 3.91758 27.8419 4.01797 27.8671 4.12768C27.8924 4.23738 27.8863 4.35198 27.8495 4.45837L27.0233 6.84697C26.9936 6.93284 26.9447 7.01084 26.8805 7.07509C26.8163 7.13934 26.7383 7.18816 26.6524 7.21787L24.2635 8.04436C24.1571 8.08118 24.0425 8.08731 23.9328 8.06206C23.823 8.03681 23.7226 7.98119 23.643 7.90157L22.0809 6.33917C22.0013 6.25956 21.9457 6.15918 21.9205 6.04948C21.8953 5.93978 21.9014 5.82519 21.9382 5.71881L22.7644 3.3302C22.7941 3.24434 22.8429 3.16635 22.9071 3.1021C22.9714 3.03785 23.0494 2.98904 23.1352 2.95933L25.5238 2.13284C25.6302 2.09602 25.7448 2.08989 25.8545 2.11513C25.9643 2.14038 26.0647 2.19599 26.1443 2.2756L27.7067 3.83801L27.7067 3.83798ZM25.5613 3.38968L23.8032 3.99803L23.195 5.75625L24.2261 6.78753L25.9845 6.17915L26.5927 4.42099L25.5614 3.38968H25.5613ZM13.2225 19.3439L6.11614 26.4503C5.8965 26.6699 5.63268 26.6983 5.53799 26.6037L3.35417 24.4199C3.25975 24.3254 3.28814 24.0617 3.50792 23.8418L10.6004 16.7496C10.8347 16.5153 10.8347 16.1354 10.6004 15.9011C10.3661 15.6668 9.9862 15.6668 9.75188 15.9011L2.65928 22.9934C2.00655 23.6465 1.89747 24.6597 2.5055 25.2682L4.68967 27.4524C5.2984 28.0606 6.31199 27.9515 6.96469 27.2988L14.0711 20.1924C14.3054 19.9581 14.3054 19.5782 14.0711 19.3438C13.8368 19.1095 13.4569 19.1095 13.2226 19.3438L13.2225 19.3439Z" fill="black"/>
</svg>
