<svg width="28" height="29" viewBox="0 0 28 29" fill="none" xmlns="http://www.w3.org/2000/svg">
<path d="M0 4.5C0 2.29086 1.79086 0.5 4 0.5H20.7574C21.8182 0.5 22.8356 0.92142 23.5858 1.67158L26.8284 4.91422C27.5786 5.66436 28 6.68178 28 7.74264V24.5C28 26.7092 26.2092 28.5 24 28.5H4C1.79086 28.5 0 26.7092 0 24.5V4.5ZM4 2.5C2.89544 2.5 2 3.39544 2 4.5V24.5C2 25.6046 2.89544 26.5 4 26.5V17.5C4 15.8432 5.34314 14.5 7 14.5H21C22.6568 14.5 24 15.8432 24 17.5V26.5C25.1046 26.5 26 25.6046 26 24.5V7.74264C26 7.2122 25.7892 6.7035 25.4142 6.32842L22.1716 3.08578C21.7966 2.71072 21.2878 2.5 20.7574 2.5H20V7.5C20 9.15686 18.6568 10.5 17 10.5H9C7.34314 10.5 6 9.15686 6 7.5V2.5H4ZM8 2.5V7.5C8 8.05228 8.44772 8.5 9 8.5H17C17.5522 8.5 18 8.05228 18 7.5V2.5H8ZM22 26.5V17.5C22 16.9478 21.5522 16.5 21 16.5H7C6.44772 16.5 6 16.9478 6 17.5V26.5H22Z" fill="white"/>
</svg>
