<svg width="37" height="30" viewBox="0 0 37 30" fill="none" xmlns="http://www.w3.org/2000/svg">
<path d="M15.6418 23.8573L15.6424 23.858C16.5167 24.8752 16.8473 25.9828 16.9286 26.5479H3.07087C3.15155 25.9841 3.48312 24.8754 4.35759 23.858L4.35791 23.8576C5.30432 22.7522 6.98011 21.6485 10 21.6485C13.0219 21.6485 14.6975 22.7505 15.6418 23.8573ZM17.2 28.5977C17.2 28.8477 17.2001 28.8477 17.2003 28.8477H17.2006L17.2013 28.8477L17.2033 28.8477L17.2092 28.8477L17.2285 28.8472C17.2447 28.8466 17.2672 28.8456 17.2952 28.8436C17.351 28.8396 17.4292 28.8317 17.5223 28.8162C17.7075 28.7854 17.9581 28.7232 18.2118 28.5964C18.4664 28.4691 18.7287 28.2742 18.9268 27.9771C19.1258 27.6785 19.25 27.2916 19.25 26.7979C19.25 25.8382 18.7786 23.9807 17.3898 22.3607C15.9908 20.7287 13.6707 19.3487 10 19.3487C6.32934 19.3487 4.00918 20.7287 2.61019 22.3607C1.22144 23.9807 0.75 25.8382 0.75 26.7979C0.75 27.2916 0.874158 27.6785 1.07324 27.9771C1.27129 28.2742 1.53355 28.4691 1.78821 28.5964C2.04188 28.7232 2.29253 28.7854 2.47765 28.8162C2.57081 28.8317 2.64898 28.8396 2.70485 28.8436C2.73282 28.8456 2.75533 28.8466 2.77146 28.8472L2.79081 28.8477L2.79671 28.8477L2.79869 28.8477L2.79943 28.8477H2.79973C2.79987 28.8477 2.8 28.8477 2.8 28.5977V28.8477H17.2V28.5977ZM12.3688 14.768C11.7406 15.3961 10.8885 15.7491 10 15.7491C9.11152 15.7491 8.25943 15.3961 7.63118 14.768C7.00294 14.1398 6.65 13.2878 6.65 12.3994C6.65 11.5111 7.00294 10.6591 7.63118 10.0309C8.25943 9.40272 9.11152 9.04981 10 9.04981C10.8885 9.04981 11.7406 9.40272 12.3688 10.0309C12.9971 10.6591 13.35 11.5111 13.35 12.3994C13.35 13.2878 12.9971 14.1398 12.3688 14.768ZM15.2199 14.5614C15.5039 13.876 15.65 13.1413 15.65 12.3994C15.65 10.9011 15.0547 9.46414 13.9951 8.40467C12.9356 7.3452 11.4985 6.75 10 6.75C8.50154 6.75 7.06444 7.3452 6.00486 8.40467C4.94527 9.46414 4.35 10.9011 4.35 12.3994C4.35 13.1413 4.49614 13.876 4.78008 14.5614C5.06403 15.2468 5.4802 15.8696 6.00486 16.3942C6.52951 16.9188 7.15236 17.3349 7.83785 17.6188C8.52334 17.9027 9.25804 18.0489 10 18.0489C10.742 18.0489 11.4767 17.9027 12.1622 17.6188C12.8476 17.3349 13.4705 16.9188 13.9951 16.3942C14.5198 15.8696 14.936 15.2468 15.2199 14.5614Z" fill="black" stroke="black" stroke-width="0.5"/>
<line x1="19" y1="1.5" x2="36" y2="1.5" stroke="black" stroke-width="3"/>
<line x1="19" y1="9.5" x2="36" y2="9.5" stroke="black" stroke-width="3"/>
<line x1="19" y1="17.5" x2="36" y2="17.5" stroke="black" stroke-width="3"/>
</svg>
