<svg width="55" height="56" viewBox="0 0 55 56" fill="none" xmlns="http://www.w3.org/2000/svg">
<path d="M54.2582 37.6539C51.8709 33.8528 50.603 28.3967 50.603 21.8865C50.603 16.2144 48.1691 10.7747 43.8365 6.76396C39.504 2.75321 33.6278 0.5 27.5007 0.5C21.3736 0.5 15.4974 2.75321 11.1649 6.76396C6.83236 10.7747 4.39837 16.2144 4.39837 21.8865C4.39837 28.3992 3.13599 33.8528 0.748754 37.6539C0.261628 38.4293 0.00341283 39.3096 3.35991e-05 40.2065C-0.00334563 41.1034 0.24823 41.9854 0.729502 42.7638C1.20773 43.5427 1.90185 44.1893 2.7402 44.6368C3.57854 45.0844 4.53074 45.3167 5.49848 45.3098H15.449C15.7219 48.0942 17.1096 50.6835 19.3396 52.569C21.5696 54.4545 24.4806 55.5 27.5007 55.5C30.5209 55.5 33.4318 54.4545 35.6618 52.569C37.8918 50.6835 39.2795 48.0942 39.5524 45.3098H49.5029C50.4693 45.3154 51.4198 45.0824 52.2565 44.6349C53.0933 44.1874 53.7861 43.5415 54.2637 42.7638C54.747 41.9865 55.001 41.1051 55 40.2082C54.999 39.3113 54.7432 38.4304 54.2582 37.6539ZM27.5007 49.3834C26.2327 49.3837 25.0035 48.9783 24.0212 48.236C23.0389 47.4937 22.3638 46.46 22.1102 45.3098H32.8913C32.6376 46.46 31.9626 47.4937 30.9803 48.236C29.9979 48.9783 28.7688 49.3837 27.5007 49.3834ZM7.33017 39.1994C9.76416 34.6166 10.999 28.7964 10.999 21.8865C10.999 17.835 12.7376 13.9495 15.8323 11.0847C18.9269 8.21987 23.1242 6.61043 27.5007 6.61043C31.8772 6.61043 36.0745 8.21987 39.1691 11.0847C42.2638 13.9495 44.0024 17.835 44.0024 21.8865C44.0024 28.7938 45.2345 34.6166 47.6685 39.1994H7.33017Z" fill="black"/>
</svg>
