<svg width="55" height="55" viewBox="0 0 55 55" fill="none" xmlns="http://www.w3.org/2000/svg">
<path d="M28.9076 55.0001C21.1646 55.0001 13.8994 51.999 8.45015 46.55C3.00089 41.101 6.77012e-07 33.8353 6.77012e-07 26.0922C-0.00115522 20.7506 1.47786 15.5132 4.27289 10.9613C7.06792 6.40934 11.0696 2.72094 15.8338 0.305478C16.324 0.0556186 16.8769 -0.044337 17.4235 0.0180889C17.9701 0.0805148 18.4862 0.302557 18.9074 0.656497C19.3286 1.01044 19.6362 1.4806 19.7918 2.00828C19.9474 2.53597 19.9442 3.09781 19.7825 3.62366C18.423 8.01484 18.2894 12.694 19.3961 17.1556C20.5028 21.6172 22.8077 25.6916 26.0618 28.9384C28.397 31.291 31.1757 33.157 34.237 34.4284C37.2983 35.6999 40.5814 36.3515 43.8962 36.3455C46.432 36.3475 48.9536 35.9671 51.376 35.2173C51.9019 35.0555 52.4638 35.0522 52.9916 35.2078C53.5193 35.3634 53.9895 35.671 54.3435 36.0922C54.6975 36.5135 54.9195 37.0296 54.9819 37.5763C55.0443 38.123 54.9443 38.6759 54.6943 39.1661C52.2788 43.9303 48.5905 47.932 44.0385 50.7271C39.4866 53.5222 34.2492 55.0012 28.9076 55.0001ZM15.7338 4.55719C12.0394 6.80501 8.98763 9.9682 6.87367 13.7408C4.75971 17.5134 3.65512 21.7677 3.66675 26.0922C3.66675 40.0101 14.9897 51.3334 28.9076 51.3334C33.2321 51.345 37.4865 50.2405 41.2591 48.1265C45.0317 46.0125 48.1949 42.9608 50.4427 39.2663C48.2961 39.7632 46.0998 40.0135 43.8964 40.0126C40.0999 40.0199 36.3397 39.274 32.8334 37.8182C29.327 36.3624 26.1443 34.2256 23.4694 31.5314C19.9944 28.063 17.4606 23.7663 16.1071 19.0468C14.7536 14.3273 14.6252 9.3408 15.7338 4.55788V4.55719Z" fill="black"/>
</svg>
