<svg width="55" height="54" viewBox="0 0 55 54" fill="none" xmlns="http://www.w3.org/2000/svg">
<path d="M0.925049 27.05C0.925049 26.45 1.12505 25.925 1.55005 25.5C1.97505 25.1 2.50005 24.9 3.05005 24.9H8.15005C8.72505 24.9 9.20005 25.1 9.60005 25.525C9.97505 25.95 10.175 26.45 10.175 27.05C10.175 27.65 10 28.15 9.62505 28.575C9.25005 29 8.75005 29.2 8.17505 29.2H3.07505C2.50005 29.2 2.00005 29 1.57505 28.575C1.15005 28.15 0.925049 27.65 0.925049 27.05ZM8.07505 44.375C8.07505 43.8 8.27505 43.3 8.65005 42.85L12.325 39.275C12.7 38.875 13.2001 38.7 13.8001 38.7C14.4001 38.7 14.9 38.9 15.3 39.275C15.7 39.65 15.9 40.125 15.9 40.7C15.9 41.3 15.7 41.85 15.3 42.3L11.75 45.85C10.725 46.65 9.70005 46.65 8.67505 45.85C8.27505 45.45 8.07505 44.95 8.07505 44.375ZM8.07505 9.775C8.07505 9.2 8.27505 8.7 8.65005 8.25C9.15005 7.825 9.67505 7.625 10.2501 7.625C10.8001 7.625 11.3 7.825 11.725 8.225L15.3 11.9C15.7 12.275 15.9 12.775 15.9 13.375C15.9 13.975 15.7 14.475 15.3 14.875C14.9 15.275 14.4001 15.475 13.8001 15.475C13.2001 15.475 12.7 15.275 12.325 14.875L8.67505 11.3C8.27505 10.9 8.07505 10.375 8.07505 9.775ZM14.45 27.05C14.45 24.725 15.025 22.55 16.2 20.55C17.375 18.55 18.95 16.95 20.975 15.775C23 14.6 25.15 14.025 27.475 14.025C29.225 14.025 30.9 14.375 32.525 15.075C34.125 15.775 35.525 16.7 36.675 17.875C37.85 19.05 38.7751 20.425 39.4501 22.025C40.1251 23.625 40.4751 25.325 40.4751 27.075C40.4751 29.425 39.9 31.6 38.725 33.6C37.55 35.6 35.975 37.175 33.975 38.35C31.975 39.525 29.8 40.1 27.45 40.1C25.1 40.1 22.925 39.525 20.925 38.35C18.925 37.175 17.35 35.6 16.175 33.6C15.05 31.575 14.45 29.4 14.45 27.05ZM18.7 27.05C18.7 29.5 19.55 31.575 21.275 33.3C22.975 35.025 25.05 35.9 27.5 35.9C29.95 35.9 32.025 35.025 33.75 33.3C35.475 31.575 36.3501 29.5 36.3501 27.05C36.3501 24.65 35.475 22.6 33.75 20.875C32.025 19.175 29.95 18.325 27.5 18.325C25.075 18.325 23.0001 19.175 21.3001 20.875C19.5501 22.6 18.7 24.65 18.7 27.05ZM25.35 46.5C25.35 45.9 25.55 45.4 25.975 45C26.4 44.6 26.9 44.4 27.475 44.4C28.075 44.4 28.6001 44.6 29.0001 45C29.4001 45.4 29.6 45.9 29.6 46.5V51.475C29.6 52.075 29.4 52.6 28.975 53.025C28.55 53.45 28.05 53.65 27.475 53.65C26.9 53.65 26.375 53.45 25.975 53.025C25.55 52.6 25.35 52.075 25.35 51.475V46.5ZM25.35 7.75V2.65C25.35 2.075 25.55 1.575 25.975 1.15C26.4 0.725001 26.9 0.5 27.5 0.5C28.1 0.5 28.5751 0.7 29.0001 1.125C29.4251 1.55 29.6251 2.05 29.6251 2.625V7.75C29.6251 8.325 29.4251 8.8 29.0001 9.2C28.5751 9.6 28.075 9.775 27.5 9.775C26.925 9.775 26.4 9.575 26 9.2C25.6 8.825 25.35 8.325 25.35 7.75ZM39.15 40.7C39.15 40.125 39.35 39.65 39.725 39.3C40.1 38.9 40.5751 38.725 41.1251 38.725C41.7251 38.725 42.225 38.925 42.625 39.3L46.275 42.875C46.675 43.3 46.8751 43.825 46.8751 44.4C46.8751 44.975 46.675 45.475 46.275 45.875C45.275 46.65 44.275 46.65 43.275 45.875L39.725 42.325C39.35 41.875 39.15 41.35 39.15 40.7ZM39.15 13.4C39.15 12.775 39.35 12.275 39.725 11.925L43.275 8.25C43.7 7.85 44.2 7.65 44.75 7.65C45.35 7.65 45.8501 7.85 46.2501 8.275C46.6751 8.7 46.8751 9.2 46.8751 9.775C46.8751 10.4 46.675 10.925 46.275 11.325L42.625 14.9C42.175 15.3 41.6751 15.5 41.1251 15.5C40.5501 15.5 40.1 15.3 39.725 14.9C39.35 14.5 39.15 14 39.15 13.4ZM44.8 27.05C44.8 26.45 45.0001 25.95 45.4001 25.5C45.8001 25.1 46.2751 24.9 46.8251 24.9H51.8751C52.4501 24.9 52.95 25.125 53.375 25.55C53.8 25.975 54.0251 26.475 54.0251 27.05C54.0251 27.625 53.8 28.125 53.375 28.55C52.95 28.975 52.4501 29.175 51.8751 29.175H46.8251C46.2501 29.175 45.75 28.975 45.375 28.55C45 28.125 44.8 27.65 44.8 27.05Z" fill="white"/>
</svg>
